<svg width="9" height="10" viewBox="0 0 9 10" fill="none" xmlns="http://www.w3.org/2000/svg">
<path d="M8.11479 5C8.11479 5.20833 8.21882 5.625 8.4269 6.25C8.63497 6.875 8.739 7.29167 8.739 7.5C8.739 7.92318 8.67561 8.32357 8.54881 8.70117C8.42202 9.07878 8.23671 9.38965 7.99287 9.63379C7.74904 9.87793 7.47757 10 7.17847 10H2.80897C2.72444 10 2.65129 9.96907 2.58951 9.90723C2.52774 9.84538 2.49686 9.77214 2.49686 9.6875C2.49686 9.60286 2.52774 9.52962 2.58951 9.46777C2.65129 9.40592 2.72444 9.375 2.80897 9.375C2.9 9.375 2.97477 9.3457 3.03329 9.28711C3.09181 9.22852 3.12107 9.15364 3.12107 9.0625C3.12107 8.89323 3.05605 8.69629 2.92601 8.47168C2.79596 8.24707 2.63991 8.01595 2.45784 7.77832C2.27578 7.54069 2.09372 7.29492 1.91166 7.04102C1.72959 6.78711 1.57354 6.50716 1.4435 6.20117C1.31345 5.89518 1.24843 5.59896 1.24843 5.3125C1.24843 4.82422 1.4435 4.42057 1.83363 4.10156C1.7556 3.86719 1.56054 3.75 1.24843 3.75C1.05986 3.75 0.863172 3.68327 0.658351 3.5498C0.453531 3.41634 0.292601 3.27637 0.17556 3.12988C0.0585201 2.9834 0 2.8776 0 2.8125C0 2.72786 0.0308856 2.65462 0.0926568 2.59277C0.154428 2.53092 0.227578 2.5 0.312107 2.5C0.364125 2.5 0.419394 2.45443 0.477914 2.36328C0.536434 2.27214 0.603082 2.1582 0.677858 2.02148C0.752634 1.88477 0.838788 1.74642 0.936322 1.60645C1.03386 1.46647 1.1639 1.33626 1.32646 1.21582C1.48901 1.09538 1.67107 1.01237 1.87264 0.966797V0C2.02219 0 2.19776 0.11556 2.39932 0.34668C2.60089 0.577799 2.73094 0.817057 2.78946 1.06445C3.10157 1.19466 3.3389 1.4209 3.50145 1.74316C3.66401 2.06543 3.74529 2.42187 3.74529 2.8125C3.74529 3.0013 3.78593 3.18034 3.8672 3.34961C3.94848 3.51888 4.0639 3.67025 4.21345 3.80371C4.363 3.93717 4.48492 4.03809 4.5792 4.10645C4.67348 4.1748 4.79215 4.2513 4.9352 4.33594C4.9612 4.35547 4.98071 4.36849 4.99372 4.375C5.37085 4.58984 5.68295 4.79818 5.93004 5C6.37869 5.37109 6.75094 5.83659 7.0468 6.39648C7.34265 6.95638 7.49057 7.42838 7.49057 7.8125C7.49057 7.83854 7.49382 7.86784 7.50033 7.90039C7.50683 7.93294 7.53609 7.97852 7.58811 8.03711C7.64013 8.0957 7.71165 8.125 7.80268 8.125C7.89371 8.125 7.96849 8.07454 8.02701 7.97363C8.08553 7.87272 8.11479 7.71484 8.11479 7.5C8.11479 7.27213 8.07252 7.04427 7.98799 6.81641C7.90347 6.58854 7.79943 6.37207 7.67589 6.16699C7.55235 5.96191 7.4288 5.7487 7.30526 5.52734C7.18172 5.30599 7.07768 5.04069 6.99315 4.73145C6.90862 4.4222 6.86636 4.09505 6.86636 3.75C6.86636 3.4375 6.9964 3.15104 7.25649 2.89062C7.51658 2.63021 7.80268 2.5 8.11479 2.5C8.29035 2.5 8.43827 2.56022 8.55857 2.68066C8.67886 2.80111 8.739 2.94922 8.739 3.125C8.739 3.22917 8.7195 3.32194 8.68048 3.40332C8.64147 3.4847 8.59108 3.55957 8.52931 3.62793C8.46753 3.69629 8.4334 3.73698 8.4269 3.75C8.21882 4.09505 8.11479 4.51172 8.11479 5Z" fill="#818AF9"/>
</svg>
