<svg width="11" height="10" viewBox="0 0 11 10" fill="none" xmlns="http://www.w3.org/2000/svg">
<g clip-path="url(#clip0_86_133)">
<path d="M9.51017 10C9.32099 10 9.13671 9.96094 8.95733 9.88281C8.77794 9.80469 8.64585 9.72982 8.56105 9.6582C8.47624 9.58659 8.37514 9.49219 8.25772 9.375C7.84024 9.79167 7.21401 10 6.37905 10H1.68238C1.59758 10 1.52419 9.96907 1.46222 9.90723C1.40025 9.84538 1.36927 9.77214 1.36927 9.6875C1.36927 9.60286 1.40025 9.52962 1.46222 9.46777C1.52419 9.40592 1.59758 9.375 1.68238 9.375C1.76065 9.375 1.85361 9.30176 1.96124 9.15527C2.06887 9.00879 2.17161 8.82324 2.26946 8.59863C2.36731 8.37402 2.45048 8.10547 2.51897 7.79297C2.58746 7.48047 2.62171 7.17448 2.62171 6.875C2.62171 6.70573 2.60051 6.5625 2.55811 6.44531C2.51571 6.32812 2.46352 6.22721 2.40155 6.14258C2.33958 6.05794 2.27761 5.96517 2.21564 5.86426C2.15367 5.76335 2.10149 5.61361 2.05909 5.41504C2.01669 5.21647 1.99549 4.97396 1.99549 4.6875C1.99549 4.51823 2.01669 4.37988 2.05909 4.27246C2.10149 4.16504 2.15367 4.08366 2.21564 4.02832C2.27761 3.97298 2.33958 3.91602 2.40155 3.85742C2.46352 3.79883 2.51571 3.70931 2.55811 3.58887C2.60051 3.46842 2.62171 3.3138 2.62171 3.125C2.62171 2.70833 2.41297 2.5 1.99549 2.5C1.70195 2.5 1.41982 2.3877 1.14911 2.16309C0.878398 1.93848 0.743042 1.73828 0.743042 1.5625C0.743042 1.41276 0.813166 1.27116 0.953414 1.1377C1.09366 1.00423 1.23228 0.9375 1.36927 0.9375C1.48016 0.9375 1.5829 0.904948 1.67748 0.839844C1.77207 0.77474 1.86176 0.696615 1.94656 0.605469C2.03137 0.514323 2.12432 0.423177 2.22543 0.332031C2.32654 0.240885 2.46352 0.16276 2.63639 0.0976562C2.80925 0.0325521 3.0131 0 3.24793 0C3.55452 0 3.80403 0.0358073 3.99647 0.107422C4.1889 0.179036 4.33241 0.27181 4.427 0.385742C4.52158 0.499674 4.59823 0.65918 4.65694 0.864258C4.71564 1.06934 4.75641 1.27279 4.77925 1.47461C4.80208 1.67643 4.84285 1.93359 4.90155 2.24609C4.96026 2.55859 5.03528 2.85156 5.1266 3.125C5.25054 3.49609 5.54245 3.96973 6.00234 4.5459C6.46222 5.12207 6.79653 5.48177 7.00527 5.625C7.84024 6.17838 8.25772 7.01172 8.25772 8.125C8.25772 8.44401 8.44363 8.7321 8.81545 8.98926C9.18727 9.24642 9.62758 9.375 10.1364 9.375C10.306 9.375 10.5049 9.34245 10.7333 9.27734C10.6745 9.50521 10.531 9.68262 10.3027 9.80957C10.0744 9.93652 9.81023 10 9.51017 10ZM3.87416 6.875C3.85459 6.97917 3.8285 7.11426 3.79588 7.28027C3.76326 7.44629 3.69314 7.69857 3.58551 8.03711C3.47788 8.37565 3.36535 8.61328 3.24793 8.75H4.50038C4.50038 8.47005 4.46776 8.22754 4.40253 8.02246C4.3373 7.81738 4.26555 7.66927 4.18727 7.57812C4.10899 7.48698 4.03724 7.38118 3.972 7.26074C3.90677 7.1403 3.87416 7.01172 3.87416 6.875Z" fill="#818AF9"/>
</g>
<defs>
<clipPath id="clip0_86_133">
<rect width="10" height="10" fill="white" transform="translate(0.739014)"/>
</clipPath>
</defs>
</svg>
