<svg width="25" height="25" viewBox="0 0 25 25" fill="none" xmlns="http://www.w3.org/2000/svg">
<mask id="mask0_157_9" style="mask-type:luminance" maskUnits="userSpaceOnUse" x="0" y="0" width="25" height="25">
<path d="M24.8086 0.957397H0.808594V24.9574H24.8086V0.957397Z" fill="white"/>
</mask>
<g mask="url(#mask0_157_9)">
<path d="M2.80859 4.9504C2.81042 4.68778 2.91549 4.43641 3.10111 4.25062C3.28672 4.06482 3.53797 3.95949 3.80059 3.9574H21.8166C22.3646 3.9574 22.8086 4.4024 22.8086 4.9504V20.9644C22.8068 21.227 22.7017 21.4784 22.5161 21.6642C22.3305 21.85 22.0792 21.9553 21.8166 21.9574H3.80059C3.53741 21.9571 3.28509 21.8524 3.09908 21.6662C2.91308 21.48 2.80859 21.2276 2.80859 20.9644V4.9504ZM4.80859 5.9574V19.9574H20.8086V5.9574H4.80859ZM6.80859 7.9574H12.8086V13.9574H6.80859V7.9574ZM8.80859 9.9574V11.9574H10.8086V9.9574H8.80859ZM6.80859 15.9574H18.8086V17.9574H6.80859V15.9574ZM14.8086 7.9574H18.8086V9.9574H14.8086V7.9574ZM14.8086 11.9574H18.8086V13.9574H14.8086V11.9574Z" fill="black"/>
</g>
</svg>
