<svg width="130" height="132" viewBox="0 0 130 132" fill="none" xmlns="http://www.w3.org/2000/svg">
<path fill-rule="evenodd" clip-rule="evenodd" d="M61.5588 19.144C61.3131 21.2718 61.1053 24.0932 60.6306 26.8694C60.2596 29.0346 59.1795 30.954 57.6947 32.5994C53.7095 37.0169 47.8289 37.1682 43.6971 32.7169C35.0052 23.3544 36.4598 7.70548 48.9956 1.4148C49.6075 1.10745 50.2627 0.870111 50.9191 0.671932C54.1867 -0.312432 56.7653 0.662438 58.5291 3.59002C60.1113 6.21618 60.7119 9.15917 61.0525 12.1491C61.2899 14.2365 61.3629 16.3417 61.5588 19.144Z" fill="#0F0E0E"/>
<path fill-rule="evenodd" clip-rule="evenodd" d="M89.5088 19.306C89.3824 24.0107 87.6625 28.5575 84.2637 32.3715C79.4352 37.79 72.1646 36.9451 68.5071 30.6568C67.1374 28.3041 66.5647 25.7433 66.392 23.0613C66.0353 17.5301 66.0181 12.009 67.7653 6.6772C68.2792 5.10958 69.1474 3.58586 70.1522 2.26982C71.5225 0.475533 73.5433 -0.016943 75.7379 0.444088C79.2964 1.1923 82.0779 3.23638 84.4388 5.88865C87.7284 9.58283 89.4708 13.903 89.5088 19.306Z" fill="#0F0E0E"/>
<path fill-rule="evenodd" clip-rule="evenodd" d="M86.0405 46.1087C86.7361 38.257 89.3485 31.0905 94.7396 25.0965C95.6357 24.0991 96.8452 23.2987 98.0517 22.6857C99.8962 21.7482 101.68 22.0805 103.018 23.6553C103.96 24.7624 104.794 26.0666 105.296 27.4242C107.083 32.2517 108.036 37.215 107.51 42.4229C106.769 49.797 100.826 55.4017 93.5775 55.3976C89.5099 55.3952 87.0464 53.3351 86.3657 49.3093C86.1948 48.2934 86.1533 47.2557 86.0405 46.1087Z" fill="#0F0E0E"/>
<path fill-rule="evenodd" clip-rule="evenodd" d="M41.6366 46.7537C41.3951 47.957 41.2402 49.6647 40.6948 51.2382C39.7422 53.9878 37.5707 55.2433 34.7227 55.3792C27.4705 55.7245 21.2355 50.4443 20.2409 43.1901C19.464 37.5313 20.4705 32.1253 22.556 26.9003C23.0652 25.6252 23.9429 24.4373 24.8687 23.4037C26.0046 22.1357 27.6355 21.7892 29.1411 22.5291C30.5642 23.2275 32.0248 24.121 33.061 25.2899C38.3512 31.2602 40.9286 38.3804 41.6366 46.7537Z" fill="#0F0E0E"/>
<path d="M52.0632 81.1358C49.0211 81.1364 46.0247 80.2126 43.2128 78.3631C39.2277 75.7417 37.8046 71.3047 37.312 68.0442C36.6603 63.7407 38.2419 59.7658 42.1464 55.893C48.3736 49.7175 56.405 52.4493 57.6246 53.2093C58.2946 53.6271 58.1665 54.1937 58.1113 54.3569C57.9445 54.774 57.5552 55.2427 56.5611 56.3903C56.0377 56.9949 55.1143 58.0605 54.8175 58.5453C54.9926 58.7476 55.3878 59.0502 55.6181 59.2259C55.9528 59.4816 56.2418 59.7029 56.4454 59.9474C57.0816 60.7146 57.4852 61.7607 57.6804 63.1449L57.697 63.2832L56.8086 63.3372L55.938 63.5122L55.9226 63.4292C55.7783 62.3772 55.4935 61.588 55.0757 61.0837C55.0015 60.9941 54.7332 60.7893 54.5374 60.6392C53.7991 60.0744 52.9629 59.4347 52.9801 58.5168C52.9956 57.8813 53.4982 57.2085 55.2169 55.2243C55.4424 54.9639 55.7083 54.6571 55.9362 54.3847C53.8193 53.627 48.0496 52.5466 43.4016 57.1563C39.9286 60.6007 38.5132 64.0753 39.0734 67.7778C39.512 70.681 40.7559 74.6144 44.1921 76.8756C49.3909 80.2963 55.0733 80.2049 60.6246 76.6151L61.5914 78.1104C58.4733 80.126 55.243 81.1358 52.0632 81.1358Z" fill="#0F0E0E"/>
<path d="M47.4888 73.3262C46.56 72.2884 46.3 70.7712 46.8846 69.7982C47.1143 69.416 47.8205 68.5723 49.4021 68.958C51.2525 69.4137 53.6211 69.1852 54.7392 67.6496C55.6187 66.4398 56.0893 64.7108 55.9101 63.3473L57.6757 63.1147C57.9142 64.9274 57.3267 67.118 56.1795 68.6963C54.5748 70.9 51.4063 71.2815 48.9778 70.6864C48.7564 70.6318 48.4751 70.6063 48.411 70.7137C48.2715 70.9457 48.3617 71.6322 48.8152 72.1377L47.4888 73.3262Z" fill="#0F0E0E"/>
<path d="M50.519 61.1371C50.4526 60.7354 50.0478 60.2648 49.557 60.018C49.3036 59.891 48.8057 59.7154 48.3125 59.9682L47.7701 58.9132C48.4811 58.5477 49.3048 58.5637 50.0899 58.9583C50.9315 59.3814 51.56 60.1604 51.6893 60.943L50.519 61.1371Z" fill="#0F0E0E"/>
<path d="M77.5147 81.0837C76.5949 81.0837 75.7064 80.949 74.9005 80.6742C73.1504 80.0761 71.8275 78.8473 71.0768 77.1189C70.4673 75.7168 70.4851 74.2257 71.1296 72.6878C72.5361 69.3336 76.4631 66.8029 78.7598 65.9206L79.3984 67.5826C77.3207 68.3813 73.891 70.7066 72.7717 73.3766C72.3154 74.4643 72.2952 75.4563 72.71 76.4098C73.2637 77.6838 74.1943 78.5518 75.4756 78.9897C77.2833 79.6068 79.7503 79.2923 81.7616 78.1863C85.6292 76.0556 88.3325 71.8737 88.6482 67.534C88.98 62.9824 86.9076 58.0012 83.6103 55.4202C82.0524 54.2008 80.2459 53.6929 78.383 53.9481C77.0655 54.1296 75.8263 54.6714 74.6833 55.2291C74.4447 55.3448 74.1747 55.5038 73.8857 55.6723C72.8649 56.2681 71.5949 57.0085 70.4115 56.8139C70.0928 56.7605 69.6376 56.5641 68.7463 56.1589C68.3688 55.9874 67.8525 55.7524 67.6976 55.7091C66.7421 55.438 65.8394 55.3442 65.011 55.4285C63.3979 55.5958 62.0899 56.4283 61.3285 57.7728C60.4703 59.2888 60.449 61.2445 61.2715 63.0043C62.7605 66.1906 65.7617 67.8989 70.4459 68.2264L70.3219 70.0017C65.008 69.6303 61.4205 67.5298 59.6585 63.7579C58.5926 61.4771 58.6371 58.912 59.7789 56.8958C60.8169 55.0636 62.6567 53.8834 64.8276 53.6579C65.8822 53.5505 67.0098 53.6638 68.1807 53.9961C68.4507 54.0715 68.8519 54.2519 69.4827 54.5384C69.878 54.7182 70.5391 55.0191 70.7172 55.0612C71.2424 55.1478 72.2542 54.5634 72.9872 54.135C73.3112 53.9457 73.6174 53.7671 73.9029 53.6283C75.1165 53.0361 76.5699 52.4006 78.1397 52.184C80.4578 51.866 82.7883 52.5163 84.707 54.0175C88.5034 56.989 90.8013 62.4721 90.4233 67.6615C90.0648 72.5875 87.0019 77.3301 82.6198 79.7445C81.0198 80.6244 79.2127 81.0837 77.5147 81.0837Z" fill="#0F0E0E"/>
<path d="M77.0477 59.6329L76.0394 59.0075C76.7284 57.8956 78.8513 57.7775 80.967 57.752L80.9806 58.9387C80.1076 58.9494 77.4519 58.9814 77.0477 59.6329Z" fill="#0F0E0E"/>
<path d="M65.9047 78.9286C64.2596 78.9286 62.3261 78.4017 62.2371 78.3768L62.5522 77.2328C62.5736 77.2381 64.7557 77.8357 66.2774 77.7294C68.0774 77.5989 70.3249 76.9848 70.3468 76.9789L70.6619 78.1228C70.5652 78.1495 68.2786 78.7743 66.3611 78.9132C66.2133 78.9238 66.0596 78.9286 65.9047 78.9286Z" fill="#0F0E0E"/>
<path d="M35.9867 105.683C35.9867 110.94 34.3066 115.147 30.947 118.302C27.5874 121.457 23.1304 123.036 17.5768 123.036L17.2432 131.503H1.94361L1.13827 110.821C0.897917 105.49 0.518692 98.1721 0 88.8607C2.88782 88.2863 7.11748 88.0003 12.689 88.0003C19.4824 88.0003 24.9257 89.3609 29.0177 92.0814C33.6633 95.1727 35.9867 99.7059 35.9867 105.683ZM24.4628 110.348C24.4628 107.46 22.75 106.017 19.3263 106.017C18.9186 106.017 18.502 106.044 18.0765 106.1L17.7987 115.816C22.2414 115.669 24.4628 113.846 24.4628 110.348Z" fill="#0F0E0E"/>
<path d="M71.78 131.502H56.5902L55.5635 127.809C55.138 127.975 43.2639 127.296 41.5606 128.257C40.468 128.961 43.6828 126.3 42.3505 127.467L43.1404 124.308C42.8259 123.643 46.3813 127.348 45.7891 126.144L44.2894 131.502H36.2366C37.4218 126.931 39.255 119.388 41.7357 108.875C43.2538 101.842 44.5208 95.1721 45.5398 88.8595H62.2281C62.7462 91.7651 64.1623 98.5299 66.4762 109.154C67.7533 114.706 69.5207 122.155 71.78 131.502ZM54.1979 121.94C53.8834 120.96 53.3884 119.823 52.592 117.621C52.1107 116.399 51.3795 114.717 50.3985 112.568C49.9724 113.642 49.3066 115.4 48.3997 117.843C47.8994 119.25 47.7742 119.516 47.09 121.94C47.6454 121.94 48.287 122.162 50.249 121.94C51.4341 121.774 52.8092 122.349 54.1979 121.94Z" fill="#0F0E0E"/>
<path d="M130.008 88.8595C128.379 93.4306 125.843 100.936 122.4 111.375C120.901 116.224 118.91 122.932 116.43 131.502H106.461C105.535 127.615 103.869 120.98 101.463 111.597C99.9437 116.428 97.8992 123.062 95.3259 131.502H85.4969C84.3117 127.263 82.2844 120.341 79.4156 110.736C77.7302 105.461 75.2411 98.1703 71.9456 88.8595H90.8832C91.2719 90.6739 91.958 93.6068 92.9384 97.66L95.8814 108.765C96.4179 107.229 97.2137 104.554 98.2701 100.742C97.3989 97.5034 96.2885 93.5422 94.9378 88.8601H112.154C112.45 90.6371 112.94 93.5155 113.625 97.4945C114.125 100.143 114.809 103.898 115.68 108.766L118.539 97.4387C119.058 95.2914 119.66 92.432 120.345 88.8601H130.008V88.8595Z" fill="#0F0E0E"/>
</svg>
