<svg width="24" height="24" viewBox="0 0 24 24" fill="none" xmlns="http://www.w3.org/2000/svg">
<mask id="mask0_745_78" style="mask-type:luminance" maskUnits="userSpaceOnUse" x="0" y="0" width="24" height="24">
<path d="M24 0H0V24H24V0Z" fill="white"/>
</mask>
<g mask="url(#mask0_745_78)">
<path d="M20.8401 4.61011C20.3291 4.09912 19.7231 3.69376 19.0551 3.4172C18.3881 3.14064 17.6721 2.99829 16.9501 2.99829C16.2281 2.99829 15.5121 3.14064 14.8451 3.4172C14.1771 3.69376 13.5711 4.09912 13.0601 4.61011L12.0001 5.67011L10.9401 4.61011C9.90813 3.57842 8.50913 2.99882 7.05013 2.99882C5.59113 2.99882 4.19213 3.57842 3.16013 4.61011C2.12843 5.64181 1.54883 7.04108 1.54883 8.50011C1.54883 9.95915 2.12843 11.3584 3.16013 12.3901L4.22013 13.4501L12.0001 21.2301L19.7801 13.4501L20.8401 12.3901C21.3511 11.8793 21.7561 11.2729 22.0331 10.6054C22.3091 9.93801 22.4521 9.2226 22.4521 8.50011C22.4521 7.77763 22.3091 7.06222 22.0331 6.39476C21.7561 5.7273 21.3511 5.12087 20.8401 4.61011Z" stroke="#BFBFBF" stroke-width="2" stroke-linecap="round" stroke-linejoin="round"/>
</g>
</svg>
