<svg width="24" height="24" viewBox="0 0 24 24" fill="none" xmlns="http://www.w3.org/2000/svg">
<path d="M12 11.725C12.5437 11.725 13.0078 11.5371 13.3922 11.1612C13.7766 10.7854 13.9687 10.3317 13.9687 9.8C13.9687 9.26833 13.7766 8.81458 13.3922 8.43875C13.0078 8.06292 12.5437 7.875 12 7.875C11.4562 7.875 10.9922 8.06292 10.6078 8.43875C10.2234 8.81458 10.0312 9.26833 10.0312 9.8C10.0312 10.3317 10.2234 10.7854 10.6078 11.1612C10.9922 11.5371 11.4562 11.725 12 11.725ZM12 20.8275C14.4937 18.6092 16.3359 16.5971 17.5266 14.7912C18.7172 12.9854 19.3125 11.395 19.3125 10.02C19.3125 7.85667 18.6047 6.0875 17.1891 4.7125C15.7734 3.3375 14.0437 2.65 12 2.65C9.95625 2.65 8.22656 3.3375 6.81094 4.7125C5.39531 6.0875 4.6875 7.85667 4.6875 10.02C4.6875 11.395 5.29687 12.9854 6.51562 14.7912C7.73437 16.5971 9.5625 18.6092 12 20.8275ZM12 23C8.98125 20.4883 6.72656 18.1554 5.23594 16.0012C3.74531 13.8471 3 11.8533 3 10.02C3 7.27 3.90469 5.07917 5.71406 3.4475C7.52344 1.81583 9.61875 1 12 1C14.3812 1 16.4766 1.81583 18.2859 3.4475C20.0953 5.07917 21 7.27 21 10.02C21 11.8533 20.2547 13.8471 18.7641 16.0012C17.2734 18.1554 15.0187 20.4883 12 23Z" fill="#BFBFBF"/>
</svg>
