<svg width="25" height="25" viewBox="0 0 25 25" fill="none" xmlns="http://www.w3.org/2000/svg">
<g clip-path="url(#clip0_86_64)">
<path d="M4.05751 24.4172V11.7674L3.5714 11.3269C3.31677 11.0961 3.13737 10.8549 3.0332 10.6032C2.92904 10.3514 2.87695 10.0787 2.87695 9.78501C2.87695 9.49132 2.92904 9.21336 3.0332 8.95113C3.13737 8.68891 3.31677 8.44242 3.5714 8.21166L8.01584 4.15242H14.2658L19.6825 -0.756439L22.2867 1.60359C23.1895 2.42173 23.8665 3.3605 24.3179 4.41989C24.7693 5.47927 25.0066 6.54391 25.0297 7.61379C25.0066 8.68366 24.7693 9.7483 24.3179 10.8077C23.8665 11.8671 23.1895 12.8058 22.2867 13.624L19.3353 16.2987V24.4172H4.05751ZM6.14084 22.5292H17.252V15.512L20.7936 12.3024C21.5112 11.6521 22.0494 10.9231 22.4082 10.1154C22.767 9.30776 22.9464 8.47388 22.9464 7.61379C22.9464 6.75369 22.767 5.92506 22.4082 5.12789C22.0494 4.33073 21.5112 3.60699 20.7936 2.95667L19.6825 1.91826L15.1339 6.04044H8.8839L7.73806 7.07885L10.3075 9.40741C10.9557 9.99479 11.4418 10.6504 11.7658 11.3741C12.0899 12.0978 12.252 12.8478 12.252 13.624C12.252 14.3582 12.1131 15.0715 11.8353 15.7637C11.5575 16.456 11.1293 17.0854 10.5506 17.6518L6.14084 13.6555V22.5292Z" fill="#BFBFBF"/>
</g>
<defs>
<clipPath id="clip0_86_64">
<rect width="25" height="25" fill="white"/>
</clipPath>
</defs>
</svg>
